<svg version="1.2" xmlns="http://www.w3.org/2000/svg" viewBox="0 0 1580 259" width="1580" height="259"><style></style><path  d="m238.3 82.9v30c-20.9-20.4-55-31.2-94.8-31.2-71.1 0-124.2 32.4-124.2 80.2 0 47.8 53.1 80.6 124.2 80.6 41.2 0 75.8-11.4 96.2-32.8v31.3h32.2v-158.1zm-91.9 140.7c-53.1 0-92.9-24.7-92.9-61.7 0-36.9 39.8-61.6 92.9-61.6 52.6 0 92.4 24.7 92.4 61.6 0 37-39.8 61.7-92.4 61.7zm326.1 0c-46.5 0-81.6-15.7-93.9-41.2l204.8-25.3c-2.4-44.5-52.6-75.4-119.5-75.4-71.6 0-123.2 33.3-123.2 80.2 0 46.9 53.5 80.6 131.3 80.6 39.3 0 73.4-9 95.7-25.8l-18.9-13.9c-18.5 13.9-45.5 20.8-76.3 20.8zm-8.6-123.6c46 0 78.7 19.6 85.8 45.4l-175.8 21.7c-0.5-2.2-0.5-4.3-0.5-6.7 0-35.7 37.4-60.4 90.5-60.4zm299.1 116c-9.5 5.5-22.7 8.2-37 8.2-27.9 0-42.6-10.3-42.6-28.9v-94.4h75.3v-18h-75.3v-34.6h-33.7v148.2c0 29.2 26.1 46 73 46 19.5 0 39.4-3.6 52.2-11.1zm200-134.4c-42.2 0-74.9 10.5-93.4 28.9v-92.6h-33.7v223h33.7v-82.9c0-36.1 33.7-57.2 87.2-57.2 47.4 0 74.9 17.2 74.9 50.6v89.5h33.7v-91.7c0-45.3-41.8-67.6-102.4-67.6zm301.4 141.9c-46.4 0-81.5-15.6-93.8-41.2l204.7-25.2c-2.3-44.5-52.6-75.5-119.4-75.5-71.6 0-123.2 33.4-123.2 80.3 0 46.9 53.5 80.5 131.3 80.5 39.3 0 73.4-9 95.7-25.8l-19-13.8c-18.4 13.8-45.5 20.7-76.3 20.7zm-8.5-123.6c46 0 78.7 19.6 85.8 45.4l-175.9 21.7c-0.4-2.1-0.4-4.2-0.4-6.6 0-35.8 37.4-60.5 90.5-60.5zm220.4 13.9v-31h-32.2v158.1h33.6v-80.5c0-37.3 31.8-58.3 83.9-58.3 2.4 0 5.2 0.3 8.1 0.3v-20.8c-46 0-77.8 11.1-93.4 32.2z"/></svg>